#!OML:ASF H:\LiuWeirdWalks\Patient Classification 1\Patient 1\Session 1\male.ASF
:FULLY-SPECIFIED
:DEGREES
508
root 0.0880109 17.5216 -16.6516 -5.61224 3.79556 9.14459
lowerback 6.57068 -1.67578 9.45091
upperback 0.30555 -1.06852 11.8415
thorax -3.35163 -0.562427 7.38571
lowerneck -16.3743 0.948573 5.15537
upperneck 21.357 5.36315 -22.2222
head 10.4084 0.48208 -8.3024
rclavicle 2.87244e-014 -1.97194e-013
rhumerus -31.5303 -27.5519 -5.27714
rradius 39.8145
rwrist -6.65848
rhand -21.1545 0.293133
rfingers 7.12502
rthumb 5.22521 -29.6224
lclavicle 2.87244e-014 -1.97194e-013
lhumerus -22.9946 24.4613 16.5865
lradius 40.406
lwrist 8.11676
lhand -14.949 2.4605
lfingers 7.12502
lthumb 11.2139 32.1408
rfemur 0.915736 3.30664 8.0779
rtibia 38.946
rfoot -21.3904 -27.2325
rtoes -4.34027
lfemur -9.63381 7.09323 -21.0879
ltibia 38.1918
lfoot -11.3965 2.59755
ltoes -15.2015
509
root 0.111936 17.5248 -16.6401 -5.35734 3.36541 9.13281
lowerback 6.68492 -1.62105 9.38668
upperback 0.391 -0.997974 11.8143
thorax -3.32814 -0.527563 7.38556
lowerneck -16.3229 1.05074 5.23081
upperneck 21.0747 5.43452 -22.209
head 10.3097 0.538918 -8.2774
rclavicle 4.47266e-016 -7.63333e-014
rhumerus -31.5098 -27.5564 -5.27747
rradius 39.836
rwrist -6.60143
rhand -21.0605 0.305173
rfingers 7.12502
rthumb 5.31596 -29.6081
lclavicle 4.47266e-016 -7.63333e-014
lhumerus -23.1503 24.452 16.5534
lradius 40.5395
lwrist 8.23937
lhand -15.0576 2.46238
lfingers 7.12502
lthumb 11.1092 32.1483
rfemur 0.588734 3.36281 7.92372
rtibia 38.8699
rfoot -21.4429 -26.8957
rtoes -4.47504
lfemur -9.85886 7.16627 -21.0918
ltibia 38.3431
lfoot -11.2362 2.24266
ltoes -15.0185
510
root 0.136286 17.5276 -16.6288 -5.10132 2.91283 9.13278
lowerback 6.80561 -1.55967 9.29407
upperback 0.469302 -0.919175 11.7775
thorax -3.31614 -0.488571 7.39003
lowerneck -16.2144 1.14424 5.27408
upperneck 20.7767 5.4926 -22.1711
head 10.1902 0.593238 -8.23584
rclavicle 7.80385e-015 1.59028e-014
rhumerus -31.4773 -27.543 -5.27931
rradius 39.8413
rwrist -6.40487
rhand -20.9043 0.414576
rfingers 7.12502
rthumb 5.46672 -29.4949
lclavicle 7.80385e-015 1.59028e-014
lhumerus -23.3382 24.3989 16.5091
lradius 40.6904
lwrist 8.38608
lhand -15.2396 2.51446
lfingers 7.12502
lthumb 10.9336 32.2098
rfemur 0.240548 3.41496 7.74432
rtibia 38.8107
rfoot -21.4905 -26.5247
rtoes -4.62581
lfemur -10.0558 7.25803 -21.1019
ltibia 38.5139
lfoot -11.2654 1.83399
ltoes -15.1428
511
root 0.160641 17.5304 -16.6173 -4.84943 2.44763 9.12426
lowerback 6.93651 -1.49523 9.19376
upperback 0.550188 -0.835991 11.7345
thorax -3.30753 -0.447433 7.39163
lowerneck -16.0916 1.25029 5.33045
upperneck 20.4475 5.56053 -22.1355
head 10.0594 0.655425 -8.19442
rclavicle 2.0773e-014 1.43125e-013
rhumerus -31.4277 -27.5236 -5.29628
rradius 39.8429
rwrist -6.16491
rhand -20.7183 0.59811
rfingers 7.12502
rthumb 5.64632 -29.3067
lclavicle 2.0773e-014 1.43125e-013
lhumerus -23.5317 24.3655 16.4601
lradius 40.8341
lwrist 8.53558
lhand -15.4494 2.5892
lfingers 7.12502
lthumb 10.7313 32.2951
rfemur -0.11846 3.46172 7.56906
rtibia 38.7634
rfoot -21.5263 -26.1367
rtoes -4.79853
lfemur -10.2153 7.34997 -21.0973
ltibia 38.652
lfoot -11.4212 1.39054
ltoes -15.3796
512
root 0.185077 17.5334 -16.6053 -4.59895 1.98396 9.10488
lowerback 7.07237 -1.43211 9.08769
upperback 0.629541 -0.754295 11.6855
thorax -3.30341 -0.407079 7.3901
lowerneck -15.9726 1.363 5.43273
upperneck 20.1071 5.63199 -22.1338
head 9.92928 0.720097 -8.17498
rclavicle 9.24349e-015 -6.99722e-014
rhumerus -31.3628 -27.4603 -5.33206
rradius 39.8481
rwrist -5.93185
rhand -20.5457 0.820957
rfingers 7.12502
rthumb 5.81301 -29.0793
lclavicle 9.24349e-015 -6.99722e-014
lhumerus -23.7429 24.3473 16.3988
lradius 40.9702
lwrist 8.68244
lhand -15.6383 2.65692
lfingers 7.12502
lthumb 10.549 32.3722
rfemur -0.481938 3.49328 7.40092
rtibia 38.7236
rfoot -21.5417 -25.7394
rtoes -4.99881
lfemur -10.3408 7.41952 -21.081
ltibia 38.7144
lfoot -11.6238 0.96421
ltoes -15.556
513
root 0.209538 17.5363 -16.5924 -4.35608 1.51686 9.07376
lowerback 7.20984 -1.36714 8.97857
upperback 0.71575 -0.671616 11.6299
thorax -3.29312 -0.366183 7.38235
lowerneck -15.8935 1.473 5.50842
upperneck 19.8254 5.70912 -22.0943
head 9.82728 0.783974 -8.14057
rclavicle -1.36167e-014 -6.36111e-015
rhumerus -31.2787 -27.3803 -5.38868
rradius 39.8638
rwrist -5.80829
rhand -20.4151 1.01899
rfingers 7.12502
rthumb 5.93906 -28.8778
lclavicle -1.36167e-014 -6.36111e-015
lhumerus -23.9529 24.3809 16.331
lradius 41.0909
lwrist 8.82751
lhand -15.7954 2.71423
lfingers 7.12502
lthumb 10.3975 32.4372
rfemur -0.839858 3.52064 7.24471
rtibia 38.6852
rfoot -21.546 -25.3403
rtoes -5.20082
lfemur -10.4238 7.46458 -21.0532
ltibia 38.678
lfoot -11.8359 0.620578
ltoes -15.6235
